# xmcd CD database file
#
# Track frame offsets:
#	150
#	8880
#	20557
#	35266
#	45184
#	53513
#	58152
#	73484
#	85775
#	94436
#	103218
#	116669
#	139775
#	152587
#	155497
#	163097
#
# Disc length: 2423 seconds
#
# Revision: 0
# Processed by: cddbd v1.5.2PL0 Copyright (c) Steve Scherf et al.
# Submitted via: CDex 1.51
#
DISCID=d3097510
DTITLE=Blind Lemming Chiffon - Goodbye, Blues
DYEAR=2014
DGENRE=Blues
TTITLE0=Alabama Bound
TTITLE1=If You Knew Susy
TTITLE2=Everyone Says I Love You
TTITLE3=Mysterious Mose
TTITLE4=Paddlin' Madelyn Home
TTITLE5=K-K-K-Katy
TTITLE6=Too Tight Rag
TTITLE7=Ain't She Sweet
TTITLE8=It's A Sin To Tell A Lie
TTITLE9=Toot Toot Toot Tootsie Goodbye
TTITLE10=At The Farmyard Cabaret
TTITLE11=Mapleleaf Rag
TTITLE12=At The Moving Picture Ball
TTITLE13=Who Tames The Horsetamer's Daughter
TTITLE14=When You Wish Upon A Star
TTITLE15=Sweethearts On Parade
EXTD=YEAR: 2014
EXTT0=
EXTT1=
EXTT2=
EXTT3=
EXTT4=
EXTT5=
EXTT6=
EXTT7=
EXTT8=
EXTT9=
EXTT10=
EXTT11=
EXTT12=
EXTT13=
EXTT14=
EXTT15=
PLAYORDER=
